<?xml version="1.0" standalone="no"?>
<!DOCTYPE svg PUBLIC "-//W3C//DTD SVG 20010904//EN"
 "http://www.w3.org/TR/2001/REC-SVG-20010904/DTD/svg10.dtd">
<svg version="1.0" xmlns="http://www.w3.org/2000/svg"
 width="1500.000000pt" height="1500.000000pt" viewBox="0 0 1500.000000 1500.000000"
 preserveAspectRatio="xMidYMid meet">

<g transform="translate(0.000000,1500.000000) scale(0.100000,-0.100000)"
fill="#000000" stroke="none">
<path d="M180 7500 l0 -7320 7320 0 7320 0 0 7320 0 7320 -7320 0 -7320 0 0
-7320z m1975 825 c206 -53 340 -202 366 -405 13 -99 4 -259 -18 -334 -47 -161
-181 -319 -333 -393 -124 -61 -199 -73 -455 -73 l-215 0 0 -210 0 -210 -105 0
-105 0 0 433 c0 244 5 469 11 517 26 210 125 389 287 521 170 138 394 198 567
154z m3226 -9 c129 -40 243 -126 302 -228 56 -97 57 -107 57 -775 l0 -613
-105 0 -105 0 0 596 c0 415 -3 608 -11 634 -29 97 -132 181 -248 201 -175 31
-399 -85 -528 -273 -93 -138 -93 -136 -93 -684 l0 -474 -100 0 -100 0 0 483
c0 526 2 546 59 671 104 229 332 416 575 472 73 17 230 12 297 -10z m-1657 -6
c201 -51 349 -195 387 -378 18 -88 7 -283 -20 -354 -31 -81 -97 -150 -184
-193 -137 -67 -277 -85 -666 -85 l-233 0 4 -102 c5 -120 24 -171 84 -231 81
-80 199 -116 319 -97 37 6 72 12 78 13 6 1 19 -40 29 -92 23 -108 25 -104 -67
-120 -223 -39 -461 55 -574 226 -64 97 -71 141 -71 472 0 163 5 316 11 341 51
227 216 433 434 542 51 26 161 64 205 71 69 12 192 6 264 -13z m4336 -2 c129
-27 254 -127 315 -252 51 -103 58 -166 52 -486 -5 -306 -11 -340 -82 -484
-141 -285 -489 -474 -767 -415 -175 37 -314 163 -362 328 -22 74 -22 313 -1
396 58 223 247 405 481 465 65 17 111 20 296 20 248 0 236 -5 194 85 -50 108
-150 162 -285 152 -42 -3 -85 -8 -97 -12 -21 -7 -19 -12 -61 172 -4 19 1 22
49 32 107 21 167 21 268 -1z m3224 2 c204 -52 353 -200 387 -385 17 -94 6
-277 -21 -350 -43 -111 -159 -200 -315 -240 -90 -23 -274 -35 -534 -35 l-233
0 4 -102 c3 -76 9 -115 25 -149 60 -133 228 -209 388 -176 39 9 73 12 76 9 3
-4 14 -47 23 -96 20 -103 22 -99 -69 -115 -132 -23 -253 -4 -381 59 -99 48
-182 132 -228 230 l-31 65 -3 316 c-3 262 -1 327 13 385 35 151 149 329 273
427 100 78 259 153 362 170 69 12 192 6 264 -13z m-2284 -139 l0 -150 33 31
c220 206 522 267 741 150 74 -39 161 -129 195 -202 46 -96 54 -171 48 -449 -4
-215 -7 -255 -26 -321 -83 -281 -289 -480 -571 -551 -137 -35 -286 -14 -404
55 -105 61 -195 198 -215 326 -7 40 -11 299 -11 663 l0 597 105 0 105 0 0
-149z m-2100 44 l0 -95 -195 0 -195 0 0 -517 c0 -499 1 -520 21 -563 62 -138
188 -199 344 -167 47 10 68 11 71 3 2 -6 10 -42 19 -81 9 -38 18 -77 21 -87 4
-13 -8 -19 -65 -32 -276 -63 -539 85 -606 339 -12 50 -15 145 -15 582 l0 523
-75 0 -75 0 0 88 c0 49 3 92 7 95 3 4 172 7 375 7 l368 0 0 -95z m5322 -522
l3 -608 23 -50 c58 -126 184 -190 325 -165 32 6 64 13 72 16 9 4 19 -21 35
-92 26 -111 28 -107 -65 -123 -90 -16 -152 -14 -241 9 -198 51 -331 202 -354
401 -6 46 -10 339 -10 652 l0 567 105 0 104 0 3 -607z m1000 0 c3 -597 3 -609
24 -654 63 -135 201 -200 349 -165 39 10 62 11 66 4 3 -5 14 -48 24 -95 21
-99 23 -96 -70 -112 -126 -22 -236 -6 -347 50 -112 57 -210 180 -237 300 -7
27 -11 282 -11 662 l0 617 100 0 99 0 3 -607z"/>
<path d="M1886 8110 c-154 -55 -286 -182 -354 -342 -25 -59 -26 -74 -30 -255
l-4 -193 204 0 c111 0 232 5 268 10 136 22 253 110 313 237 31 67 32 71 32
213 0 127 -3 151 -21 191 -26 55 -77 108 -130 134 -59 30 -201 32 -278 5z"/>
<path d="M3453 8116 c-238 -58 -443 -312 -443 -549 l0 -58 343 3 c383 5 409 9
485 73 56 49 76 115 70 234 -6 132 -54 209 -167 265 -88 44 -189 56 -288 32z"/>
<path d="M7730 7666 c-126 -28 -223 -105 -281 -221 -33 -67 -34 -74 -37 -207
-4 -163 8 -212 68 -281 189 -215 600 -42 717 302 20 58 23 86 23 244 l0 177
-217 -1 c-132 0 -240 -6 -273 -13z"/>
<path d="M11013 8116 c-127 -31 -264 -132 -348 -256 -62 -92 -86 -160 -93
-268 l-5 -83 344 3 c397 5 420 9 494 82 33 34 46 56 55 99 18 78 9 201 -18
254 -72 140 -253 211 -429 169z"/>
<path d="M9390 8037 c-36 -12 -87 -35 -115 -51 -69 -41 -174 -151 -212 -221
-58 -111 -63 -144 -63 -414 0 -137 5 -262 10 -283 16 -57 70 -130 120 -160
214 -131 555 51 657 351 21 61 23 84 23 317 0 296 -5 318 -84 400 -39 40 -64
56 -105 68 -75 22 -154 20 -231 -7z"/>
</g>
</svg>
